<mxfile host="app.diagrams.net" modified="2021-04-15T14:24:53.719Z" agent="5.0 (Macintosh; Intel Mac OS X 11_2_3) AppleWebKit/537.36 (KHTML, like Gecko) Chrome/89.0.4389.128 Safari/537.36" etag="lNBg3m1AEo9Viz6oKM4v" version="14.6.0" type="github">
  <diagram id="6r5mw1DmH5bTRlWealW-" name="Page-1">
    <mxGraphModel dx="1347" dy="696" grid="1" gridSize="10" guides="1" tooltips="1" connect="1" arrows="1" fold="1" page="1" pageScale="1" pageWidth="850" pageHeight="1100" math="0" shadow="0">
      <root>
        <mxCell id="0" />
        <mxCell id="1" parent="0" />
        <mxCell id="Bd3Er_YMUO2qb7um0DIA-3" value="" style="rounded=0;whiteSpace=wrap;html=1;" vertex="1" parent="1">
          <mxGeometry x="20" y="30" width="330" height="350" as="geometry" />
        </mxCell>
        <mxCell id="Bd3Er_YMUO2qb7um0DIA-2" value="" style="rounded=0;whiteSpace=wrap;html=1;" vertex="1" parent="1">
          <mxGeometry x="145" y="85" width="80" height="240" as="geometry" />
        </mxCell>
        <mxCell id="Bd3Er_YMUO2qb7um0DIA-4" value="&lt;font style=&quot;font-size: 18px&quot;&gt;JavaScript&lt;/font&gt;" style="text;html=1;strokeColor=none;fillColor=none;align=center;verticalAlign=middle;whiteSpace=wrap;rounded=0;" vertex="1" parent="1">
          <mxGeometry x="50" y="40" width="40" height="20" as="geometry" />
        </mxCell>
        <mxCell id="Bd3Er_YMUO2qb7um0DIA-6" value="&lt;font style=&quot;font-size: 18px&quot;&gt;Call Stack&lt;/font&gt;" style="text;html=1;strokeColor=none;fillColor=none;align=center;verticalAlign=middle;whiteSpace=wrap;rounded=0;" vertex="1" parent="1">
          <mxGeometry x="155" y="97" width="60" height="20" as="geometry" />
        </mxCell>
        <mxCell id="Bd3Er_YMUO2qb7um0DIA-7" value="" style="rounded=0;whiteSpace=wrap;html=1;" vertex="1" parent="1">
          <mxGeometry x="155" y="290" width="60" height="20" as="geometry" />
        </mxCell>
        <mxCell id="Bd3Er_YMUO2qb7um0DIA-8" value="" style="rounded=0;whiteSpace=wrap;html=1;" vertex="1" parent="1">
          <mxGeometry x="155" y="260" width="60" height="20" as="geometry" />
        </mxCell>
        <mxCell id="Bd3Er_YMUO2qb7um0DIA-9" value="" style="rounded=0;whiteSpace=wrap;html=1;" vertex="1" parent="1">
          <mxGeometry x="155" y="230" width="60" height="20" as="geometry" />
        </mxCell>
        <mxCell id="Bd3Er_YMUO2qb7um0DIA-10" value="" style="rounded=0;whiteSpace=wrap;html=1;" vertex="1" parent="1">
          <mxGeometry x="155" y="200" width="60" height="20" as="geometry" />
        </mxCell>
        <mxCell id="Bd3Er_YMUO2qb7um0DIA-11" value="" style="shape=flexArrow;endArrow=classic;html=1;" edge="1" parent="1">
          <mxGeometry width="50" height="50" relative="1" as="geometry">
            <mxPoint x="370" y="230" as="sourcePoint" />
            <mxPoint x="460" y="230" as="targetPoint" />
          </mxGeometry>
        </mxCell>
        <mxCell id="Bd3Er_YMUO2qb7um0DIA-13" value="" style="rounded=0;whiteSpace=wrap;html=1;" vertex="1" parent="1">
          <mxGeometry x="480" y="30" width="190" height="350" as="geometry" />
        </mxCell>
        <mxCell id="Bd3Er_YMUO2qb7um0DIA-14" value="&lt;font style=&quot;font-size: 18px&quot;&gt;Web APIs&lt;/font&gt;" style="text;html=1;strokeColor=none;fillColor=none;align=center;verticalAlign=middle;whiteSpace=wrap;rounded=0;" vertex="1" parent="1">
          <mxGeometry x="527.5" y="50" width="95" height="20" as="geometry" />
        </mxCell>
        <mxCell id="Bd3Er_YMUO2qb7um0DIA-15" value="&lt;font style=&quot;font-size: 18px&quot;&gt;DOM&lt;/font&gt;" style="rounded=1;whiteSpace=wrap;html=1;" vertex="1" parent="1">
          <mxGeometry x="515" y="100" width="120" height="60" as="geometry" />
        </mxCell>
        <mxCell id="Bd3Er_YMUO2qb7um0DIA-16" value="&lt;font style=&quot;font-size: 18px&quot;&gt;Fetch&lt;/font&gt;" style="rounded=1;whiteSpace=wrap;html=1;" vertex="1" parent="1">
          <mxGeometry x="515" y="180" width="120" height="60" as="geometry" />
        </mxCell>
        <mxCell id="Bd3Er_YMUO2qb7um0DIA-17" value="&lt;font style=&quot;font-size: 18px&quot;&gt;setTimeout&lt;/font&gt;" style="rounded=1;whiteSpace=wrap;html=1;" vertex="1" parent="1">
          <mxGeometry x="515" y="260" width="120" height="60" as="geometry" />
        </mxCell>
        <mxCell id="Bd3Er_YMUO2qb7um0DIA-18" value="" style="shape=flexArrow;endArrow=classic;html=1;" edge="1" parent="1">
          <mxGeometry width="50" height="50" relative="1" as="geometry">
            <mxPoint x="560" y="414" as="sourcePoint" />
            <mxPoint x="560" y="494" as="targetPoint" />
          </mxGeometry>
        </mxCell>
        <mxCell id="Bd3Er_YMUO2qb7um0DIA-20" value="" style="rounded=0;whiteSpace=wrap;html=1;" vertex="1" parent="1">
          <mxGeometry x="370" y="510" width="340" height="70" as="geometry" />
        </mxCell>
        <mxCell id="Bd3Er_YMUO2qb7um0DIA-21" value="&lt;font style=&quot;font-size: 17px&quot;&gt;Callback Queue&lt;/font&gt;" style="text;html=1;strokeColor=none;fillColor=none;align=center;verticalAlign=middle;whiteSpace=wrap;rounded=0;" vertex="1" parent="1">
          <mxGeometry x="460" y="515" width="160" height="20" as="geometry" />
        </mxCell>
        <mxCell id="Bd3Er_YMUO2qb7um0DIA-22" value="" style="whiteSpace=wrap;html=1;aspect=fixed;" vertex="1" parent="1">
          <mxGeometry x="380" y="540" width="30" height="30" as="geometry" />
        </mxCell>
        <mxCell id="Bd3Er_YMUO2qb7um0DIA-23" value="" style="whiteSpace=wrap;html=1;aspect=fixed;" vertex="1" parent="1">
          <mxGeometry x="430" y="540" width="30" height="30" as="geometry" />
        </mxCell>
        <mxCell id="Bd3Er_YMUO2qb7um0DIA-24" value="" style="whiteSpace=wrap;html=1;aspect=fixed;" vertex="1" parent="1">
          <mxGeometry x="480" y="540" width="30" height="30" as="geometry" />
        </mxCell>
        <mxCell id="Bd3Er_YMUO2qb7um0DIA-25" value="&lt;font style=&quot;font-size: 18px&quot;&gt;Event Loop&lt;/font&gt;" style="ellipse;whiteSpace=wrap;html=1;aspect=fixed;" vertex="1" parent="1">
          <mxGeometry x="100" y="465" width="170" height="170" as="geometry" />
        </mxCell>
        <mxCell id="Bd3Er_YMUO2qb7um0DIA-26" value="" style="shape=flexArrow;endArrow=classic;html=1;" edge="1" parent="1">
          <mxGeometry width="50" height="50" relative="1" as="geometry">
            <mxPoint x="350" y="554.5" as="sourcePoint" />
            <mxPoint x="290" y="554.5" as="targetPoint" />
          </mxGeometry>
        </mxCell>
        <mxCell id="Bd3Er_YMUO2qb7um0DIA-27" value="" style="shape=flexArrow;endArrow=classic;html=1;" edge="1" parent="1">
          <mxGeometry width="50" height="50" relative="1" as="geometry">
            <mxPoint x="184.5" y="450" as="sourcePoint" />
            <mxPoint x="184.5" y="400" as="targetPoint" />
          </mxGeometry>
        </mxCell>
      </root>
    </mxGraphModel>
  </diagram>
</mxfile>
